0
SECTION
2 
ENTITIES
0
LINE
8
Outline
10
-19.0932
20
6.64
11
-19.1175
21
6.63904
0
LINE
8
Outline
10
-19.1175
20
6.63904
11
-19.13537
21
6.63879
0
LINE
8
Outline
10
-19.13537
20
6.63879
11
-19.22066
21
6.63514
0
LINE
8
Outline
10
-19.22066
20
6.63514
11
-19.22564
21
6.63479
0
LINE
8
Outline
10
-19.22564
20
6.63479
11
-19.32913
21
6.63071
0
LINE
8
Outline
10
-19.32913
20
6.63071
11
-19.41533
21
6.62391
0
LINE
8
Outline
10
-19.41533
20
6.62391
11
-19.64782
21
6.5964
0
LINE
8
Outline
10
-19.64782
20
6.5964
11
-19.73322
21
6.5829
0
LINE
8
Outline
10
-19.73322
20
6.5829
11
-19.96623
21
6.53655
0
LINE
8
Outline
10
-19.96623
20
6.53655
11
-20.05023
21
6.51635
0
LINE
8
Outline
10
-20.05023
20
6.51635
11
-20.27583
21
6.45268
0
LINE
8
Outline
10
-20.27583
20
6.45268
11
-20.32135
21
6.43789
0
LINE
8
Outline
10
-20.32135
20
6.43789
11
-20.32124
21
6.43756
0
LINE
8
Outline
10
-20.32124
20
6.43756
11
-20.32205
21
6.4373
0
LINE
8
Outline
10
-20.32205
20
6.4373
11
-20.32216
21
6.43763
0
LINE
8
Outline
10
-20.32216
20
6.43763
11
-20.35781
21
6.42605
0
LINE
8
Outline
10
-20.35781
20
6.42605
11
-20.36709
21
6.42263
0
LINE
8
Outline
10
-20.36709
20
6.42263
11
-20.36797
21
6.42234
0
LINE
8
Outline
10
-20.36797
20
6.42234
11
-20.36832
21
6.42222
0
LINE
8
Outline
10
-20.36832
20
6.42222
11
-20.36831
21
6.42218
0
LINE
8
Outline
10
-20.36831
20
6.42218
11
-20.57925
21
6.34436
0
LINE
8
Outline
10
-20.57925
20
6.34436
11
-20.61478
21
6.32964
0
LINE
8
Outline
10
-20.61478
20
6.32964
11
-20.61469
21
6.32942
0
LINE
8
Outline
10
-20.61469
20
6.32942
11
-20.62304
21
6.32595
0
LINE
8
Outline
10
-20.62304
20
6.32595
11
-20.62313
21
6.32617
0
LINE
8
Outline
10
-20.62313
20
6.32617
11
-20.65891
21
6.31135
0
LINE
8
Outline
10
-20.65891
20
6.31135
11
-20.87195
21
6.21319
0
LINE
8
Outline
10
-20.87195
20
6.21319
11
-20.94895
21
6.17399
0
LINE
8
Outline
10
-20.94895
20
6.17399
11
-21.15632
21
6.05785
0
LINE
8
Outline
10
-21.15632
20
6.05785
11
-21.23002
21
6.01265
0
LINE
8
Outline
10
-21.23002
20
6.01265
11
-21.42529
21
5.88211
0
LINE
8
Outline
10
-21.42529
20
5.88211
11
-21.49519
21
5.83131
0
LINE
8
Outline
10
-21.49519
20
5.83131
11
-21.67787
21
5.6874
0
LINE
8
Outline
10
-21.67787
20
5.6874
11
-21.74367
21
5.6313
0
LINE
8
Outline
10
-21.74367
20
5.6313
11
-21.91862
21
5.46972
0
LINE
8
Outline
10
-21.91862
20
5.46972
11
-21.97972
21
5.40862
0
LINE
8
Outline
10
-21.97972
20
5.40862
11
-22.1413
21
5.23367
0
LINE
8
Outline
10
-22.1413
20
5.23367
11
-22.1974
21
5.16787
0
LINE
8
Outline
10
-22.1974
20
5.16787
11
-22.34131
21
4.98519
0
LINE
8
Outline
10
-22.34131
20
4.98519
11
-22.39211
21
4.91529
0
LINE
8
Outline
10
-22.39211
20
4.91529
11
-22.52265
21
4.72002
0
LINE
8
Outline
10
-22.52265
20
4.72002
11
-22.56785
21
4.64632
0
LINE
8
Outline
10
-22.56785
20
4.64632
11
-22.68399
21
4.43895
0
LINE
8
Outline
10
-22.68399
20
4.43895
11
-22.72319
21
4.36195
0
LINE
8
Outline
10
-22.72319
20
4.36195
11
-22.8212
21
4.14928
0
LINE
8
Outline
10
-22.8212
20
4.14928
11
-22.83627
21
4.11291
0
LINE
8
Outline
10
-22.83627
20
4.11291
11
-22.83614
21
4.11286
0
LINE
8
Outline
10
-22.83614
20
4.11286
11
-22.83939
21
4.10503
0
LINE
8
Outline
10
-22.83939
20
4.10503
11
-22.83952
21
4.10508
0
LINE
8
Outline
10
-22.83952
20
4.10508
11
-22.85446
21
4.06901
0
LINE
8
Outline
10
-22.85446
20
4.06901
11
-22.93218
21
3.85831
0
LINE
8
Outline
10
-22.93218
20
3.85831
11
-22.93222
21
3.85832
0
LINE
8
Outline
10
-22.93222
20
3.85832
11
-22.93234
21
3.85797
0
LINE
8
Outline
10
-22.93234
20
3.85797
11
-22.93262
21
3.8571
0
LINE
8
Outline
10
-22.93262
20
3.8571
11
-22.93605
21
3.84781
0
LINE
8
Outline
10
-22.93605
20
3.84781
11
-22.94763
21
3.81216
0
LINE
8
Outline
10
-22.94763
20
3.81216
11
-22.9473
21
3.81205
0
LINE
8
Outline
10
-22.9473
20
3.81205
11
-22.94756
21
3.81124
0
LINE
8
Outline
10
-22.94756
20
3.81124
11
-22.94789
21
3.81135
0
LINE
8
Outline
10
-22.94789
20
3.81135
11
-22.96268
21
3.76583
0
LINE
8
Outline
10
-22.96268
20
3.76583
11
-23.02635
21
3.54023
0
LINE
8
Outline
10
-23.02635
20
3.54023
11
-23.04655
21
3.45623
0
LINE
8
Outline
10
-23.04655
20
3.45623
11
-23.0929
21
3.22322
0
LINE
8
Outline
10
-23.0929
20
3.22322
11
-23.1064
21
3.13782
0
LINE
8
Outline
10
-23.1064
20
3.13782
11
-23.13394
21
2.90498
0
LINE
8
Outline
10
-23.13394
20
2.90498
11
-23.14073
21
2.81878
0
LINE
8
Outline
10
-23.14073
20
2.81878
11
-23.14999
21
2.5832
0
LINE
8
Outline
10
-23.14999
20
2.5832
11
-23.14999
21
2.4968
0
LINE
8
Outline
10
-23.14999
20
2.4968
11
-23.14073
21
2.26122
0
LINE
8
Outline
10
-23.14073
20
2.26122
11
-23.13394
21
2.17502
0
LINE
8
Outline
10
-23.13394
20
2.17502
11
-23.1064
21
1.94218
0
LINE
8
Outline
10
-23.1064
20
1.94218
11
-23.0929
21
1.85678
0
LINE
8
Outline
10
-23.0929
20
1.85678
11
-23.04655
21
1.62377
0
LINE
8
Outline
10
-23.04655
20
1.62377
11
-23.02635
21
1.53977
0
LINE
8
Outline
10
-23.02635
20
1.53977
11
-22.96288
21
1.31479
0
LINE
8
Outline
10
-22.96288
20
1.31479
11
-22.94814
21
1.26939
0
LINE
8
Outline
10
-22.94814
20
1.26939
11
-22.9481
21
1.2694
0
LINE
8
Outline
10
-22.9481
20
1.2694
11
-22.94751
21
1.26758
0
LINE
8
Outline
10
-22.94751
20
1.26758
11
-22.94754
21
1.26757
0
LINE
8
Outline
10
-22.94754
20
1.26757
11
-22.93598
21
1.23199
0
LINE
8
Outline
10
-22.93598
20
1.23199
11
-22.85413
21
1.0102
0
LINE
8
Outline
10
-22.85413
20
1.0102
11
-22.83912
21
0.97399
0
LINE
8
Outline
10
-22.83912
20
0.97399
11
-22.83897
21
0.97405
0
LINE
8
Outline
10
-22.83897
20
0.97405
11
-22.83612
21
0.96717
0
LINE
8
Outline
10
-22.83612
20
0.96717
11
-22.83628
21
0.9671
0
LINE
8
Outline
10
-22.83628
20
0.9671
11
-22.82118
21
0.93066
0
LINE
8
Outline
10
-22.82118
20
0.93066
11
-22.72319
21
0.71805
0
LINE
8
Outline
10
-22.72319
20
0.71805
11
-22.68399
21
0.64105
0
LINE
8
Outline
10
-22.68399
20
0.64105
11
-22.56785
21
0.43368
0
LINE
8
Outline
10
-22.56785
20
0.43368
11
-22.52265
21
0.35998
0
LINE
8
Outline
10
-22.52265
20
0.35998
11
-22.39211
21
0.16471
0
LINE
8
Outline
10
-22.39211
20
0.16471
11
-22.34131
21
0.09481
0
LINE
8
Outline
10
-22.34131
20
0.09481
11
-22.1974
21
-0.08787
0
LINE
8
Outline
10
-22.1974
20
-0.08787
11
-22.1413
21
-0.15367
0
LINE
8
Outline
10
-22.1413
20
-0.15367
11
-21.97972
21
-0.32862
0
LINE
8
Outline
10
-21.97972
20
-0.32862
11
-21.91862
21
-0.38972
0
LINE
8
Outline
10
-21.91862
20
-0.38972
11
-21.74367
21
-0.5513
0
LINE
8
Outline
10
-21.74367
20
-0.5513
11
-21.67787
21
-0.6074
0
LINE
8
Outline
10
-21.67787
20
-0.6074
11
-21.49519
21
-0.75131
0
LINE
8
Outline
10
-21.49519
20
-0.75131
11
-21.42529
21
-0.80211
0
LINE
8
Outline
10
-21.42529
20
-0.80211
11
-21.23002
21
-0.93265
0
LINE
8
Outline
10
-21.23002
20
-0.93265
11
-21.15632
21
-0.97785
0
LINE
8
Outline
10
-21.15632
20
-0.97785
11
-20.94895
21
-1.09399
0
LINE
8
Outline
10
-20.94895
20
-1.09399
11
-20.87195
21
-1.13319
0
LINE
8
Outline
10
-20.87195
20
-1.13319
11
-20.65891
21
-1.23135
0
LINE
8
Outline
10
-20.65891
20
-1.23135
11
-20.62313
21
-1.24617
0
LINE
8
Outline
10
-20.62313
20
-1.24617
11
-20.62304
21
-1.24595
0
LINE
8
Outline
10
-20.62304
20
-1.24595
11
-20.61469
21
-1.24942
0
LINE
8
Outline
10
-20.61469
20
-1.24942
11
-20.61478
21
-1.24964
0
LINE
8
Outline
10
-20.61478
20
-1.24964
11
-20.57925
21
-1.26436
0
LINE
8
Outline
10
-20.57925
20
-1.26436
11
-20.36831
21
-1.34218
0
LINE
8
Outline
10
-20.36831
20
-1.34218
11
-20.36832
21
-1.34222
0
LINE
8
Outline
10
-20.36832
20
-1.34222
11
-20.36797
21
-1.34234
0
LINE
8
Outline
10
-20.36797
20
-1.34234
11
-20.36709
21
-1.34263
0
LINE
8
Outline
10
-20.36709
20
-1.34263
11
-20.35781
21
-1.34605
0
LINE
8
Outline
10
-20.35781
20
-1.34605
11
-20.32216
21
-1.35763
0
LINE
8
Outline
10
-20.32216
20
-1.35763
11
-20.32205
21
-1.3573
0
LINE
8
Outline
10
-20.32205
20
-1.3573
11
-20.32124
21
-1.35756
0
LINE
8
Outline
10
-20.32124
20
-1.35756
11
-20.32135
21
-1.35789
0
LINE
8
Outline
10
-20.32135
20
-1.35789
11
-20.27583
21
-1.37268
0
LINE
8
Outline
10
-20.27583
20
-1.37268
11
-20.05023
21
-1.43635
0
LINE
8
Outline
10
-20.05023
20
-1.43635
11
-19.96623
21
-1.45655
0
LINE
8
Outline
10
-19.96623
20
-1.45655
11
-19.73322
21
-1.5029
0
LINE
8
Outline
10
-19.73322
20
-1.5029
11
-19.64782
21
-1.5164
0
LINE
8
Outline
10
-19.64782
20
-1.5164
11
-19.41533
21
-1.54391
0
LINE
8
Outline
10
-19.41533
20
-1.54391
11
-19.32913
21
-1.55071
0
LINE
8
Outline
10
-19.32913
20
-1.55071
11
-19.0932
21
-1.56
0
LINE
8
Outline
10
-19.0932
20
-1.56
11
-19.00678
21
-1.56
0
LINE
8
Outline
10
-19.00678
20
-1.56
11
-18.7708
21
-1.5507
0
LINE
8
Outline
10
-18.7708
20
-1.5507
11
-18.68462
21
-1.5439
0
LINE
8
Outline
10
-18.68462
20
-1.5439
11
-18.45218
21
-1.5164
0
LINE
8
Outline
10
-18.45218
20
-1.5164
11
-18.36678
21
-1.5029
0
LINE
8
Outline
10
-18.36678
20
-1.5029
11
-18.13377
21
-1.45655
0
LINE
8
Outline
10
-18.13377
20
-1.45655
11
-18.04977
21
-1.43635
0
LINE
8
Outline
10
-18.04977
20
-1.43635
11
-17.82433
21
-1.37273
0
LINE
8
Outline
10
-17.82433
20
-1.37273
11
-17.77914
21
-1.35805
0
LINE
8
Outline
10
-17.77914
20
-1.35805
11
-17.77932
21
-1.35749
0
LINE
8
Outline
10
-17.77932
20
-1.35749
11
-17.7782
21
-1.35712
0
LINE
8
Outline
10
-17.7782
20
-1.35712
11
-17.77802
21
-1.35768
0
LINE
8
Outline
10
-17.77802
20
-1.35768
11
-17.74254
21
-1.34616
0
LINE
8
Outline
10
-17.74254
20
-1.34616
11
-17.71295
21
-1.33525
0
LINE
8
Outline
10
-17.71295
20
-1.33525
11
-17.68882
21
-1.32716
0
LINE
8
Outline
10
-17.68882
20
-1.32716
11
-17.68832
21
-1.32698
0
LINE
8
Outline
10
-17.68832
20
-1.32698
11
-17.68858
21
-1.32626
0
LINE
8
Outline
10
-17.68858
20
-1.32626
11
-17.52101
21
-1.26446
0
LINE
8
Outline
10
-17.52101
20
-1.26446
11
-17.48535
21
-1.24969
0
LINE
8
Outline
10
-17.48535
20
-1.24969
11
-17.48544
21
-1.24947
0
LINE
8
Outline
10
-17.48544
20
-1.24947
11
-17.47771
21
-1.24625
0
LINE
8
Outline
10
-17.47771
20
-1.24625
11
-17.47761
21
-1.24648
0
LINE
8
Outline
10
-17.47761
20
-1.24648
11
-17.44171
21
-1.23162
0
LINE
8
Outline
10
-17.44171
20
-1.23162
11
-17.22775
21
-1.13305
0
LINE
8
Outline
10
-17.22775
20
-1.13305
11
-17.15077
21
-1.09385
0
LINE
8
Outline
10
-17.15077
20
-1.09385
11
-16.94368
21
-0.97785
0
LINE
8
Outline
10
-16.94368
20
-0.97785
11
-16.86998
21
-0.93265
0
LINE
8
Outline
10
-16.86998
20
-0.93265
11
-16.67471
21
-0.80211
0
LINE
8
Outline
10
-16.67471
20
-0.80211
11
-16.60481
21
-0.75131
0
LINE
8
Outline
10
-16.60481
20
-0.75131
11
-16.42213
21
-0.6074
0
LINE
8
Outline
10
-16.42213
20
-0.6074
11
-16.35633
21
-0.5513
0
LINE
8
Outline
10
-16.35633
20
-0.5513
11
-16.18173
21
-0.39007
0
LINE
8
Outline
10
-16.18173
20
-0.39007
11
-16.12061
21
-0.32897
0
LINE
8
Outline
10
-16.12061
20
-0.32897
11
-15.95833
21
-0.15327
0
LINE
8
Outline
10
-15.95833
20
-0.15327
11
-15.90225
21
-0.08747
0
LINE
8
Outline
10
-15.90225
20
-0.08747
11
-15.75886
21
0.09458
0
LINE
8
Outline
10
-15.75886
20
0.09458
11
-15.70805
21
0.16448
0
LINE
8
Outline
10
-15.70805
20
0.16448
11
-15.57718
21
0.36023
0
LINE
8
Outline
10
-15.57718
20
0.36023
11
-15.53199
21
0.43393
0
LINE
8
Outline
10
-15.53199
20
0.43393
11
-15.41601
21
0.64105
0
LINE
8
Outline
10
-15.41601
20
0.64105
11
-15.37681
21
0.71805
0
LINE
8
Outline
10
-15.37681
20
0.71805
11
-15.27867
21
0.93102
0
LINE
8
Outline
10
-15.27867
20
0.93102
11
-15.26382
21
0.96687
0
LINE
8
Outline
10
-15.26382
20
0.96687
11
-15.26404
21
0.96696
0
LINE
8
Outline
10
-15.26404
20
0.96696
11
-15.26058
21
0.97529
0
LINE
8
Outline
10
-15.26058
20
0.97529
11
-15.26037
21
0.9752
0
LINE
8
Outline
10
-15.26037
20
0.9752
11
-15.24559
21
1.01088
0
LINE
8
Outline
10
-15.24559
20
1.01088
11
-15.17342
21
1.20657
0
LINE
8
Outline
10
-15.17342
20
1.20657
11
-15.17305
21
1.20644
0
LINE
8
Outline
10
-15.17305
20
1.20644
11
-15.1729
21
1.20687
0
LINE
8
Outline
10
-15.1729
20
1.20687
11
-15.16891
21
1.2188
0
LINE
8
Outline
10
-15.16891
20
1.2188
11
-15.16386
21
1.23248
0
LINE
8
Outline
10
-15.16386
20
1.23248
11
-15.15231
21
1.26805
0
LINE
8
Outline
10
-15.15231
20
1.26805
11
-15.1524
21
1.26808
0
LINE
8
Outline
10
-15.1524
20
1.26808
11
-15.15196
21
1.26942
0
LINE
8
Outline
10
-15.15196
20
1.26942
11
-15.15186
21
1.26939
0
LINE
8
Outline
10
-15.15186
20
1.26939
11
-15.13712
21
1.31479
0
LINE
8
Outline
10
-15.13712
20
1.31479
11
-15.07365
21
1.53977
0
LINE
8
Outline
10
-15.07365
20
1.53977
11
-15.05345
21
1.62377
0
LINE
8
Outline
10
-15.05345
20
1.62377
11
-15.0071
21
1.85678
0
LINE
8
Outline
10
-15.0071
20
1.85678
11
-14.9936
21
1.94218
0
LINE
8
Outline
10
-14.9936
20
1.94218
11
-14.96609
21
2.17467
0
LINE
8
Outline
10
-14.96609
20
2.17467
11
-14.95929
21
2.26087
0
LINE
8
Outline
10
-14.95929
20
2.26087
11
-14.95
21
2.4968
0
LINE
8
Outline
10
-14.95
20
2.4968
11
-14.95
21
2.5832
0
LINE
8
Outline
10
-14.95
20
2.5832
11
-14.95929
21
2.81913
0
LINE
8
Outline
10
-14.95929
20
2.81913
11
-14.96609
21
2.90533
0
LINE
8
Outline
10
-14.96609
20
2.90533
11
-14.9936
21
3.13782
0
LINE
8
Outline
10
-14.9936
20
3.13782
11
-15.0071
21
3.22322
0
LINE
8
Outline
10
-15.0071
20
3.22322
11
-15.05345
21
3.45623
0
LINE
8
Outline
10
-15.05345
20
3.45623
11
-15.07365
21
3.54023
0
LINE
8
Outline
10
-15.07365
20
3.54023
11
-15.13714
21
3.76526
0
LINE
8
Outline
10
-15.13714
20
3.76526
11
-15.15192
21
3.81078
0
LINE
8
Outline
10
-15.15192
20
3.81078
11
-15.15194
21
3.81077
0
LINE
8
Outline
10
-15.15194
20
3.81077
11
-15.1524
21
3.81215
0
LINE
8
Outline
10
-15.1524
20
3.81215
11
-15.15237
21
3.81216
0
LINE
8
Outline
10
-15.15237
20
3.81216
11
-15.16395
21
3.84781
0
LINE
8
Outline
10
-15.16395
20
3.84781
11
-15.16731
21
3.85692
0
LINE
8
Outline
10
-15.16731
20
3.85692
11
-15.16766
21
3.85797
0
LINE
8
Outline
10
-15.16766
20
3.85797
11
-15.16778
21
3.85832
0
LINE
8
Outline
10
-15.16778
20
3.85832
11
-15.16782
21
3.85831
0
LINE
8
Outline
10
-15.16782
20
3.85831
11
-15.24553
21
4.06897
0
LINE
8
Outline
10
-15.24553
20
4.06897
11
-15.26025
21
4.10451
0
LINE
8
Outline
10
-15.26025
20
4.10451
11
-15.26046
21
4.10442
0
LINE
8
Outline
10
-15.26046
20
4.10442
11
-15.26404
21
4.11304
0
LINE
8
Outline
10
-15.26404
20
4.11304
11
-15.26383
21
4.11313
0
LINE
8
Outline
10
-15.26383
20
4.11313
11
-15.27865
21
4.14891
0
LINE
8
Outline
10
-15.27865
20
4.14891
11
-15.37681
21
4.36195
0
LINE
8
Outline
10
-15.37681
20
4.36195
11
-15.41601
21
4.43895
0
LINE
8
Outline
10
-15.41601
20
4.43895
11
-15.53199
21
4.64607
0
LINE
8
Outline
10
-15.53199
20
4.64607
11
-15.57718
21
4.71977
0
LINE
8
Outline
10
-15.57718
20
4.71977
11
-15.70805
21
4.91552
0
LINE
8
Outline
10
-15.70805
20
4.91552
11
-15.75886
21
4.98542
0
LINE
8
Outline
10
-15.75886
20
4.98542
11
-15.90225
21
5.16747
0
LINE
8
Outline
10
-15.90225
20
5.16747
11
-15.95833
21
5.23327
0
LINE
8
Outline
10
-15.95833
20
5.23327
11
-16.12061
21
5.40897
0
LINE
8
Outline
10
-16.12061
20
5.40897
11
-16.18173
21
5.47007
0
LINE
8
Outline
10
-16.18173
20
5.47007
11
-16.35633
21
5.6313
0
LINE
8
Outline
10
-16.35633
20
5.6313
11
-16.42213
21
5.6874
0
LINE
8
Outline
10
-16.42213
20
5.6874
11
-16.60481
21
5.83131
0
LINE
8
Outline
10
-16.60481
20
5.83131
11
-16.67471
21
5.88211
0
LINE
8
Outline
10
-16.67471
20
5.88211
11
-16.86998
21
6.01265
0
LINE
8
Outline
10
-16.86998
20
6.01265
11
-16.94368
21
6.05785
0
LINE
8
Outline
10
-16.94368
20
6.05785
11
-17.15077
21
6.17385
0
LINE
8
Outline
10
-17.15077
20
6.17385
11
-17.22775
21
6.21305
0
LINE
8
Outline
10
-17.22775
20
6.21305
11
-17.44171
21
6.31162
0
LINE
8
Outline
10
-17.44171
20
6.31162
11
-17.47761
21
6.32648
0
LINE
8
Outline
10
-17.47761
20
6.32648
11
-17.47771
21
6.32625
0
LINE
8
Outline
10
-17.47771
20
6.32625
11
-17.48544
21
6.32947
0
LINE
8
Outline
10
-17.48544
20
6.32947
11
-17.48535
21
6.32969
0
LINE
8
Outline
10
-17.48535
20
6.32969
11
-17.52101
21
6.34446
0
LINE
8
Outline
10
-17.52101
20
6.34446
11
-17.68858
21
6.40626
0
LINE
8
Outline
10
-17.68858
20
6.40626
11
-17.68832
21
6.40698
0
LINE
8
Outline
10
-17.68832
20
6.40698
11
-17.68882
21
6.40716
0
LINE
8
Outline
10
-17.68882
20
6.40716
11
-17.71295
21
6.41525
0
LINE
8
Outline
10
-17.71295
20
6.41525
11
-17.74254
21
6.42616
0
LINE
8
Outline
10
-17.74254
20
6.42616
11
-17.77802
21
6.43768
0
LINE
8
Outline
10
-17.77802
20
6.43768
11
-17.7782
21
6.43712
0
LINE
8
Outline
10
-17.7782
20
6.43712
11
-17.77932
21
6.43749
0
LINE
8
Outline
10
-17.77932
20
6.43749
11
-17.77914
21
6.43805
0
LINE
8
Outline
10
-17.77914
20
6.43805
11
-17.82433
21
6.45273
0
LINE
8
Outline
10
-17.82433
20
6.45273
11
-18.04977
21
6.51635
0
LINE
8
Outline
10
-18.04977
20
6.51635
11
-18.13377
21
6.53655
0
LINE
8
Outline
10
-18.13377
20
6.53655
11
-18.36678
21
6.5829
0
LINE
8
Outline
10
-18.36678
20
6.5829
11
-18.45218
21
6.5964
0
LINE
8
Outline
10
-18.45218
20
6.5964
11
-18.68462
21
6.6239
0
LINE
8
Outline
10
-18.68462
20
6.6239
11
-18.7708
21
6.6307
0
LINE
8
Outline
10
-18.7708
20
6.6307
11
-18.87424
21
6.63478
0
LINE
8
Outline
10
-18.87424
20
6.63478
11
-18.87934
21
6.63514
0
LINE
8
Outline
10
-18.87934
20
6.63514
11
-18.96463
21
6.63879
0
LINE
8
Outline
10
-18.96463
20
6.63879
11
-18.98251
21
6.63904
0
LINE
8
Outline
10
-18.98251
20
6.63904
11
-19.00678
21
6.64
0
LINE
8
Outline
10
-19.00678
20
6.64
11
-19.0932
21
6.64
0
LINE
8
Outline
10
-19.0932
20
6.64
11
-19.0932
21
6.64
0
ENDSEC
0
EOF
